# Blender 4.1.1
# www.blender.org
mtllib Bullet.mtl
o cone
v 0.083734 -0.312500 0.937500
v 0.228766 -0.228766 0.937500
v 0.312500 -0.083734 0.937500
v 0.312500 0.083734 0.937500
v 0.228766 0.228766 0.937500
v 0.083734 0.312500 0.937500
v -0.083734 0.312500 0.937500
v -0.228766 0.228766 0.937500
v -0.312500 0.083734 0.937500
v -0.312500 -0.083734 0.937500
v -0.228766 -0.228766 0.937500
v -0.083734 -0.312500 0.937500
v 0.062801 0.234375 1.093750
v -0.062801 0.234375 1.093750
v 0.171574 0.171575 1.093750
v -0.171574 0.171575 1.093750
v -0.234375 0.062801 1.093750
v -0.234375 -0.062801 1.093750
v -0.171574 -0.171574 1.093750
v -0.062801 -0.234375 1.093750
v 0.062801 -0.234375 1.093750
v 0.171574 -0.171574 1.093750
v 0.234375 -0.062801 1.093750
v 0.234375 0.062801 1.093750
v -0.047100 0.175781 1.210938
v -0.128681 0.128681 1.210938
v 0.000000 0.000000 1.375000
v 0.047100 0.175781 1.210938
v 0.175781 0.047101 1.210938
v 0.128681 0.128681 1.210938
v 0.128681 -0.128681 1.210938
v 0.175781 -0.047100 1.210938
v 0.047100 -0.175781 1.210938
v -0.047100 -0.175781 1.210938
v -0.128681 -0.128681 1.210938
v -0.175781 -0.047100 1.210938
v -0.175781 0.047101 1.210938
vn 0.3412 -0.5909 0.7311
vn 0.5909 -0.3412 0.7311
vn 0.6823 -0.0000 0.7311
vn 0.5909 0.3412 0.7311
vn -0.0000 0.6823 0.7311
vn -0.3412 0.5909 0.7311
vn -0.5909 0.3412 0.7311
vn -0.6823 -0.0000 0.7311
vn -0.5909 -0.3412 0.7311
vn -0.3412 -0.5909 0.7311
vn -0.0000 -0.6823 0.7311
vn 0.3412 0.5909 0.7311
vn -0.0000 0.8944 0.4472
vn 0.4472 0.7746 0.4472
vn -0.4472 0.7746 0.4472
vn -0.7746 0.4472 0.4472
vn -0.8944 -0.0000 0.4472
vn -0.7746 -0.4472 0.4472
vn -0.4472 -0.7746 0.4472
vn -0.0000 -0.8944 0.4472
vn 0.4472 -0.7746 0.4472
vn 0.7746 -0.4472 0.4472
vn 0.8944 -0.0000 0.4472
vn 0.7746 0.4472 0.4472
vt 0.575646 0.451912
vt 0.593101 0.459028
vt 0.566221 0.500000
vt 0.289340 0.209028
vt 0.306796 0.201913
vt 0.316221 0.250000
vt 0.325646 0.201913
vt 0.343101 0.209028
vt 0.806796 0.951913
vt 0.825646 0.951913
vt 0.816221 1.000000
vt 0.843101 0.959028
vt 0.789340 0.709028
vt 0.806796 0.701913
vt 0.816221 0.750000
vt 0.825646 0.701913
vt 0.843101 0.709028
vt 0.539340 0.459028
vt 0.556796 0.451912
vt 0.789340 0.959028
vt 0.828783 0.925713
vt 0.803658 0.925713
vt 0.799471 0.890775
vt 0.832971 0.890775
vt 0.799811 0.926467
vt 0.776545 0.935951
vt 0.759478 0.905179
vt 0.790500 0.892533
vt 0.853196 0.931650
vt 0.865522 0.898692
vt 0.799811 0.676467
vt 0.776545 0.685951
vt 0.759478 0.655179
vt 0.790500 0.642533
vt 0.828783 0.675713
vt 0.803658 0.675713
vt 0.799471 0.640775
vt 0.832971 0.640775
vt 0.853196 0.681650
vt 0.865522 0.648692
vt 0.549811 0.426467
vt 0.526545 0.435951
vt 0.509478 0.405179
vt 0.540500 0.392533
vt 0.578783 0.425712
vt 0.553658 0.425712
vt 0.549471 0.390775
vt 0.582971 0.390775
vt 0.603196 0.431650
vt 0.615522 0.398692
vt 0.299811 0.176467
vt 0.276545 0.185951
vt 0.259478 0.155179
vt 0.290500 0.142533
vt 0.328783 0.175712
vt 0.303658 0.175712
vt 0.299471 0.140775
vt 0.332971 0.140775
vt 0.353196 0.181650
vt 0.365522 0.148692
vt 0.843963 0.956363
vt 0.853198 0.931645
vt 0.343963 0.206363
vt 0.353198 0.181645
vt 0.593963 0.456363
vt 0.603198 0.431645
vt 0.843963 0.706363
vt 0.853198 0.681645
s 0
usemtl m_47c5c92f-e5b5-dba2-a505-2083b757a710
f 33/1/1 31/2/1 27/3/1
f 31/4/2 32/5/2 27/6/2
f 32/5/3 29/7/3 27/6/3
f 29/7/4 30/8/4 27/6/4
f 28/9/5 25/10/5 27/11/5
f 25/10/6 26/12/6 27/11/6
f 26/13/7 37/14/7 27/15/7
f 37/14/8 36/16/8 27/15/8
f 36/16/9 35/17/9 27/15/9
f 35/18/10 34/19/10 27/3/10
f 34/19/11 33/1/11 27/3/11
f 30/20/12 28/9/12 27/11/12
f 14/21/13 13/22/13 6/23/13 7/24/13
f 13/25/14 15/26/14 5/27/14 6/28/14
f 16/29/15 14/21/15 7/24/15 8/30/15
f 17/31/16 16/32/16 8/33/16 9/34/16
f 18/35/17 17/36/17 9/37/17 10/38/17
f 19/39/18 18/35/18 10/38/18 11/40/18
f 20/41/19 19/42/19 11/43/19 12/44/19
f 21/45/20 20/46/20 12/47/20 1/48/20
f 22/49/21 21/45/21 1/48/21 2/50/21
f 23/51/22 22/52/22 2/53/22 3/54/22
f 24/55/23 23/56/23 3/57/23 4/58/23
f 15/59/24 24/55/24 4/58/24 5/60/24
f 26/61/15 25/10/15 14/21/15 16/62/15
f 25/10/13 28/9/13 13/22/13 14/21/13
f 30/63/24 29/7/24 24/55/24 15/64/24
f 28/9/14 30/20/14 15/26/14 13/25/14
f 32/5/22 31/4/22 22/52/22 23/51/22
f 29/7/23 32/5/23 23/56/23 24/55/23
f 31/65/21 33/1/21 21/45/21 22/66/21
f 33/1/20 34/19/20 20/46/20 21/45/20
f 34/19/19 35/18/19 19/42/19 20/41/19
f 35/67/18 36/16/18 18/35/18 19/68/18
f 36/16/17 37/14/17 17/36/17 18/35/17
f 37/14/16 26/13/16 16/32/16 17/31/16
o cylinder
v 0.000000 -0.000000 -0.937500
v 0.083734 -0.312500 -0.937500
v 0.083734 -0.312500 0.937500
v 0.228766 -0.228766 -0.937500
v 0.228766 -0.228766 0.937500
v 0.312500 -0.083734 -0.937500
v 0.312500 -0.083734 0.937500
v 0.312500 0.083734 -0.937500
v 0.312500 0.083734 0.937500
v 0.228766 0.228766 -0.937500
v 0.228766 0.228766 0.937500
v 0.083734 0.312500 -0.937500
v 0.083734 0.312500 0.937500
v -0.083734 0.312500 -0.937500
v -0.083734 0.312500 0.937500
v -0.228766 0.228766 -0.937500
v -0.228766 0.228766 0.937500
v -0.312500 0.083734 -0.937500
v -0.312500 0.083734 0.937500
v -0.312500 -0.083734 -0.937500
v -0.312500 -0.083734 0.937500
v -0.228766 -0.228766 -0.937500
v -0.228766 -0.228766 0.937500
v -0.083734 -0.312500 -0.937500
v -0.083734 -0.312500 0.937500
vn -0.0000 -0.0000 -1.0000
vn 0.5000 -0.8660 -0.0000
vn 0.8660 -0.5000 -0.0000
vn 1.0000 -0.0000 -0.0000
vn 0.8660 0.5000 -0.0000
vn 0.5000 0.8660 -0.0000
vn -0.0000 1.0000 -0.0000
vn -0.5000 0.8660 -0.0000
vn -0.8660 0.5000 -0.0000
vn -1.0000 -0.0000 -0.0000
vn -0.8660 -0.5000 -0.0000
vn -0.5000 -0.8660 -0.0000
vn -0.0000 -1.0000 -0.0000
vt 0.358250 0.483250
vt 0.329250 0.500000
vt 0.312500 0.437500
vt 0.329250 0.625000
vt 0.362750 0.625000
vt 0.362750 1.000000
vt 0.329250 1.000000
vt 0.375000 0.454250
vt 0.012250 0.625000
vt 0.045750 0.625000
vt 0.045750 1.000000
vt 0.012250 1.000000
vt 0.375000 0.420750
vt 0.079250 0.625000
vt 0.079250 1.000000
vt 0.358250 0.391750
vt 0.112750 0.625000
vt 0.112750 1.000000
vt 0.329250 0.375000
vt 0.512250 0.625000
vt 0.545750 0.625000
vt 0.545750 1.000000
vt 0.512250 1.000000
vt 0.295750 0.375000
vt 0.579250 0.625000
vt 0.579250 1.000000
vt 0.266750 0.391750
vt 0.612750 0.625000
vt 0.612750 1.000000
vt 0.250000 0.420750
vt 0.012250 0.125000
vt 0.045750 0.125000
vt 0.045750 0.500000
vt 0.012250 0.500000
vt 0.250000 0.454250
vt 0.079250 0.125000
vt 0.079250 0.500000
vt 0.266750 0.483250
vt 0.112750 0.125000
vt 0.112750 0.500000
vt 0.295750 0.500000
vt 0.262250 0.625000
vt 0.295750 0.625000
vt 0.295750 1.000000
vt 0.262250 1.000000
s 0
usemtl m_47c5c92f-e5b5-dba2-a505-2083b757a710
f 41/69/25 39/70/25 38/71/25
f 39/72/26 41/73/26 42/74/26 40/75/26
f 43/76/25 41/69/25 38/71/25
f 41/77/27 43/78/27 44/79/27 42/80/27
f 45/81/25 43/76/25 38/71/25
f 43/78/28 45/82/28 46/83/28 44/79/28
f 47/84/25 45/81/25 38/71/25
f 45/82/29 47/85/29 48/86/29 46/83/29
f 49/87/25 47/84/25 38/71/25
f 47/88/30 49/89/30 50/90/30 48/91/30
f 51/92/25 49/87/25 38/71/25
f 49/89/31 51/93/31 52/94/31 50/90/31
f 53/95/25 51/92/25 38/71/25
f 51/93/32 53/96/32 54/97/32 52/94/32
f 55/98/25 53/95/25 38/71/25
f 53/99/33 55/100/33 56/101/33 54/102/33
f 57/103/25 55/98/25 38/71/25
f 55/100/34 57/104/34 58/105/34 56/101/34
f 59/106/25 57/103/25 38/71/25
f 57/104/35 59/107/35 60/108/35 58/105/35
f 61/109/25 59/106/25 38/71/25
f 59/110/36 61/111/36 62/112/36 60/113/36
f 39/70/25 61/109/25 38/71/25
f 61/111/37 39/72/37 40/75/37 62/112/37
