# Blender 4.1.1
# www.blender.org
mtllib ground.mtl
o cuboid
v 2.000000 0.000000 2.000000
v 2.000000 -0.500000 2.000000
v 2.000000 0.000000 -2.000000
v 2.000000 -0.500000 -2.000000
v -2.000000 0.000000 2.000000
v -2.000000 0.000000 -2.000000
v -2.000000 -0.500000 2.000000
v -2.000000 -0.500000 -2.000000
v 2.000000 0.000000 2.000000
v 2.000000 0.000000 -2.000000
v -2.000000 0.000000 2.000000
v -2.000000 0.000000 -2.000000
v 2.000000 -0.500000 2.000000
v -2.000000 -0.500000 2.000000
v 2.000000 -0.500000 -2.000000
v -2.000000 -0.500000 -2.000000
v 2.000000 0.000000 2.000000
v -2.000000 0.000000 2.000000
v 2.000000 -0.500000 2.000000
v -2.000000 -0.500000 2.000000
v 2.000000 0.000000 -2.000000
v 2.000000 -0.500000 -2.000000
v -2.000000 0.000000 -2.000000
v -2.000000 -0.500000 -2.000000
vn 1.0000 -0.0000 -0.0000
vn -1.0000 -0.0000 -0.0000
vn -0.0000 1.0000 -0.0000
vn -0.0000 -1.0000 -0.0000
vn -0.0000 -0.0000 1.0000
vn -0.0000 -0.0000 -1.0000
vt 0.507812 1.000000
vt 0.257812 1.000000
vt 0.257812 0.968750
vt 0.507812 0.968750
vt 0.507812 0.929688
vt 0.507812 0.960938
vt 0.257812 0.960938
vt 0.257812 0.929688
vt 0.000000 0.750000
vt 0.250000 0.750000
vt 0.250000 1.000000
vt 0.000000 1.000000
vt 0.250000 0.492188
vt 0.250000 0.742188
vt 0.000000 0.742188
vt 0.000000 0.492188
vt 0.507812 0.890625
vt 0.507812 0.921875
vt 0.257812 0.921875
vt 0.257812 0.890625
vt 0.507812 0.882812
vt 0.257812 0.882812
vt 0.257812 0.851562
vt 0.507812 0.851562
s 0
usemtl Material_0.001
f 3/1/1 1/2/1 2/3/1
f 3/1/1 2/3/1 4/4/1
f 7/5/2 5/6/2 6/7/2
f 7/5/2 6/7/2 8/8/2
f 11/9/3 9/10/3 10/11/3
f 11/9/3 10/11/3 12/12/3
f 15/13/4 13/14/4 14/15/4
f 15/13/4 14/15/4 16/16/4
f 19/17/5 17/18/5 18/19/5
f 19/17/5 18/19/5 20/20/5
f 23/21/6 21/22/6 22/23/6
f 23/21/6 22/23/6 24/24/6
