# Blender 4.1.1
# www.blender.org
mtllib hammer.mtl
o 円柱
v -0.075000 2.554670 0.000000
v -0.073559 2.554670 -0.014632
v -0.069291 2.554670 -0.028701
v -0.062360 2.554670 -0.041668
v -0.053033 2.554670 -0.053033
v -0.041668 2.554670 -0.062360
v -0.028701 2.554670 -0.069291
v -0.014632 2.554670 -0.073559
v -0.000000 2.554670 -0.075000
v 0.014632 2.554670 -0.073559
v 0.028701 2.554670 -0.069291
v 0.041668 2.554670 -0.062360
v 0.053033 2.554670 -0.053033
v 0.062360 2.554670 -0.041668
v 0.069291 2.554670 -0.028701
v 0.073559 2.554670 -0.014632
v 0.075000 2.554670 -0.000000
v 0.073559 2.554670 0.014632
v 0.069291 2.554670 0.028701
v 0.062360 2.554670 0.041668
v 0.053033 2.554670 0.053033
v 0.041668 2.554670 0.062360
v 0.028701 2.554670 0.069291
v 0.014632 2.554670 0.073559
v 0.000000 2.554670 0.075000
v -0.014632 2.554670 0.073559
v -0.028701 2.554670 0.069291
v -0.041668 2.554670 0.062360
v -0.053033 2.554670 0.053033
v -0.062360 2.554670 0.041668
v -0.069291 2.554670 0.028701
v -0.073559 2.554670 0.014632
v -0.075000 0.534247 0.000000
v -0.073559 0.534247 -0.014632
v -0.069291 0.534247 -0.028701
v -0.062360 0.534247 -0.041668
v -0.053033 0.534247 -0.053033
v -0.041668 0.534247 -0.062360
v -0.028701 0.534247 -0.069291
v -0.014632 0.534247 -0.073559
v -0.000000 0.534247 -0.075000
v 0.014632 0.534247 -0.073559
v 0.028701 0.534247 -0.069291
v 0.041668 0.534247 -0.062360
v 0.053033 0.534247 -0.053033
v 0.062360 0.534247 -0.041668
v 0.069291 0.534247 -0.028701
v 0.073559 0.534247 -0.014632
v 0.075000 0.534247 -0.000000
v 0.073559 0.534247 0.014632
v 0.069291 0.534247 0.028701
v 0.062360 0.534247 0.041668
v 0.053033 0.534247 0.053033
v 0.041668 0.534247 0.062360
v 0.028701 0.534247 0.069291
v 0.014632 0.534247 0.073559
v 0.000000 0.534247 0.075000
v -0.014632 0.534247 0.073559
v -0.028701 0.534247 0.069291
v -0.041668 0.534247 0.062360
v -0.053033 0.534247 0.053033
v -0.062360 0.534247 0.041668
v -0.069291 0.534247 0.028701
v -0.073559 0.534247 0.014632
v -0.006776 0.004671 0.000000
v -0.069805 0.446361 0.000000
v -0.006646 0.004671 -0.001322
v -0.068464 0.446361 -0.013618
v -0.006260 0.004671 -0.002593
v -0.064492 0.446361 -0.026713
v -0.005634 0.004671 -0.003765
v -0.058041 0.446361 -0.038782
v -0.004791 0.004671 -0.004791
v -0.049360 0.446361 -0.049360
v -0.003765 0.004671 -0.005634
v -0.038782 0.446361 -0.058041
v -0.002593 0.004671 -0.006260
v -0.026713 0.446361 -0.064492
v -0.001322 0.004671 -0.006646
v -0.013618 0.446361 -0.068464
v -0.000000 0.004671 -0.006776
v -0.000000 0.446361 -0.069805
v 0.001322 0.004671 -0.006646
v 0.013618 0.446361 -0.068464
v 0.002593 0.004671 -0.006260
v 0.026713 0.446361 -0.064492
v 0.003765 0.004671 -0.005634
v 0.038782 0.446361 -0.058041
v 0.004791 0.004671 -0.004791
v 0.049360 0.446361 -0.049360
v 0.005634 0.004671 -0.003765
v 0.058041 0.446361 -0.038782
v 0.006260 0.004671 -0.002593
v 0.064492 0.446361 -0.026713
v 0.006646 0.004671 -0.001322
v 0.068464 0.446361 -0.013618
v 0.006776 0.004671 -0.000000
v 0.069805 0.446361 -0.000000
v 0.006646 0.004671 0.001322
v 0.068464 0.446361 0.013618
v 0.006260 0.004671 0.002593
v 0.064492 0.446361 0.026713
v 0.005634 0.004671 0.003765
v 0.058041 0.446361 0.038782
v 0.004791 0.004671 0.004791
v 0.049360 0.446361 0.049360
v 0.003765 0.004671 0.005634
v 0.038782 0.446361 0.058041
v 0.002593 0.004671 0.006260
v 0.026713 0.446361 0.064492
v 0.001322 0.004671 0.006646
v 0.013618 0.446361 0.068464
v 0.000000 0.004671 0.006776
v 0.000000 0.446361 0.069805
v -0.001322 0.004671 0.006646
v -0.013618 0.446361 0.068464
v -0.002593 0.004671 0.006260
v -0.026713 0.446361 0.064492
v -0.003765 0.004671 0.005634
v -0.038782 0.446361 0.058041
v -0.004791 0.004671 0.004791
v -0.049360 0.446361 0.049360
v -0.005634 0.004671 0.003765
v -0.058041 0.446361 0.038782
v -0.006260 0.004671 0.002593
v -0.064492 0.446361 0.026713
v -0.006646 0.004671 0.001322
v -0.068464 0.446361 0.013618
v 0.199641 2.449871 0.349795
v 0.295576 2.540502 0.349795
v 0.295576 2.917704 0.349795
v 0.199641 3.008334 0.349795
v -0.199641 2.449871 0.349795
v -0.295576 2.540502 0.349795
v -0.199641 3.008334 0.349795
v -0.295576 2.917704 0.349795
v 0.199641 2.449871 -0.349795
v 0.295576 2.540502 -0.349795
v 0.199641 3.008334 -0.349795
v 0.295576 2.917704 -0.349795
v -0.199641 2.449871 -0.349795
v -0.295576 2.540502 -0.349795
v -0.199641 3.008334 -0.349795
v -0.295576 2.917704 -0.349795
v 0.145399 2.591743 0.517886
v 0.225210 2.516346 0.428284
v 0.145399 2.866462 0.517886
v 0.225210 2.941859 0.428284
v -0.145399 2.591743 0.517886
v -0.225210 2.516346 0.428284
v -0.145399 2.866462 0.517886
v -0.225210 2.941859 0.428284
v 0.145399 2.591743 -0.517886
v 0.225210 2.516346 -0.428284
v 0.145399 2.866462 -0.517886
v 0.225210 2.941859 -0.428284
v -0.145399 2.591743 -0.517886
v -0.225210 2.516346 -0.428284
v -0.145399 2.866462 -0.517886
v -0.225210 2.941859 -0.428284
vn -0.9952 -0.0000 0.0980
vn -0.8819 -0.0000 -0.4714
vn -0.7730 -0.0000 -0.6344
vn -0.6344 -0.0000 -0.7730
vn -0.4714 -0.0000 -0.8819
vn -0.2903 -0.0000 -0.9569
vn -0.0980 -0.0000 -0.9952
vn 0.0980 -0.0000 -0.9952
vn 0.2903 -0.0000 -0.9569
vn 0.4714 -0.0000 -0.8819
vn 0.6344 -0.0000 -0.7730
vn 0.7730 -0.0000 -0.6344
vn 0.8819 -0.0000 -0.4714
vn 0.9569 -0.0000 -0.2903
vn 0.9952 -0.0000 -0.0980
vn 0.9952 -0.0000 0.0980
vn 0.9569 -0.0000 0.2903
vn 0.8819 -0.0000 0.4714
vn 0.7730 -0.0000 0.6344
vn 0.6344 -0.0000 0.7730
vn 0.4714 -0.0000 0.8819
vn 0.2903 -0.0000 0.9569
vn 0.0980 -0.0000 0.9952
vn -0.0980 -0.0000 0.9952
vn -0.2903 -0.0000 0.9569
vn -0.4714 -0.0000 0.8819
vn -0.6344 -0.0000 0.7730
vn -0.7730 -0.0000 0.6344
vn -0.8819 -0.0000 0.4714
vn -0.9569 -0.0000 0.2903
vn -0.0000 1.0000 -0.0000
vn -0.9569 -0.0000 -0.2903
vn -0.9952 -0.0000 -0.0980
vn -0.0000 -1.0000 -0.0000
vn -0.8804 -0.0587 -0.4706
vn -0.7717 -0.0587 -0.6333
vn -0.6333 -0.0587 -0.7717
vn -0.4706 -0.0587 -0.8804
vn -0.2898 -0.0587 -0.9553
vn -0.0978 -0.0587 -0.9935
vn 0.0978 -0.0587 -0.9935
vn 0.2898 -0.0587 -0.9553
vn 0.4706 -0.0587 -0.8804
vn 0.6333 -0.0587 -0.7717
vn 0.7717 -0.0587 -0.6333
vn 0.8804 -0.0587 -0.4706
vn 0.9553 -0.0587 -0.2898
vn 0.9935 -0.0587 -0.0978
vn 0.9935 -0.0587 0.0978
vn 0.9553 -0.0587 0.2898
vn 0.8804 -0.0587 0.4706
vn 0.7717 -0.0587 0.6333
vn 0.6333 -0.0587 0.7717
vn 0.4706 -0.0587 0.8804
vn 0.2898 -0.0587 0.9553
vn 0.0978 -0.0587 0.9935
vn -0.0978 -0.0587 0.9935
vn -0.2898 -0.0587 0.9553
vn -0.4706 -0.0587 0.8804
vn -0.6333 -0.0587 0.7717
vn -0.7717 -0.0587 0.6333
vn -0.8804 -0.0587 0.4706
vn -0.9553 -0.0587 0.2898
vn -0.9935 -0.0587 -0.0978
vn -0.9553 -0.0587 -0.2898
vn -0.9853 -0.1406 -0.0970
vn -0.9474 -0.1406 -0.2874
vn -0.8732 -0.1406 -0.4667
vn -0.7653 -0.1406 -0.6281
vn -0.6281 -0.1406 -0.7653
vn -0.4667 -0.1406 -0.8732
vn -0.2874 -0.1406 -0.9474
vn -0.0970 -0.1406 -0.9853
vn 0.0971 -0.1406 -0.9853
vn 0.2874 -0.1406 -0.9474
vn 0.4667 -0.1406 -0.8732
vn 0.6281 -0.1406 -0.7653
vn 0.7653 -0.1406 -0.6281
vn 0.8732 -0.1406 -0.4667
vn 0.9474 -0.1406 -0.2874
vn 0.9853 -0.1406 -0.0970
vn 0.9853 -0.1406 0.0970
vn 0.9474 -0.1406 0.2874
vn 0.8732 -0.1406 0.4667
vn 0.7653 -0.1406 0.6281
vn 0.6281 -0.1406 0.7653
vn 0.4667 -0.1406 0.8732
vn 0.2874 -0.1406 0.9474
vn 0.0970 -0.1406 0.9853
vn -0.0971 -0.1406 0.9853
vn -0.2874 -0.1406 0.9474
vn -0.4667 -0.1406 0.8732
vn -0.6281 -0.1406 0.7653
vn -0.7653 -0.1406 0.6281
vn -0.8732 -0.1406 0.4667
vn -0.9474 -0.1406 0.2874
vn -0.9853 -0.1406 0.0970
vn -0.9935 -0.0587 0.0978
vn 1.0000 -0.0000 -0.0000
vn 0.7446 -0.0000 -0.6675
vn 0.6394 -0.6768 0.3649
vn -1.0000 -0.0000 -0.0000
vn 0.7446 -0.0000 0.6675
vn -0.0000 0.7631 0.6463
vn -0.7446 -0.0000 0.6675
vn -0.0000 -0.7631 -0.6463
vn -0.0000 -0.0000 -1.0000
vn -0.6394 -0.6768 -0.3649
vn -0.7446 -0.0000 -0.6675
vn -0.0000 -0.0000 1.0000
vn 0.6394 0.6768 0.3649
vn -0.6394 -0.6768 0.3649
vn -0.6394 0.6768 0.3649
vn -0.6867 -0.7269 -0.0000
vn -0.6867 0.7269 -0.0000
vn -0.6394 0.6768 -0.3649
vn 0.6394 -0.6768 -0.3649
vn 0.6394 0.6768 -0.3649
vn -0.0000 0.7631 -0.6463
vn 0.6867 -0.7269 -0.0000
vn 0.6867 0.7269 -0.0000
vn -0.0000 -0.7652 0.6439
vn 0.7467 -0.0000 0.6651
vn -0.0000 0.7652 0.6439
vn -0.7467 -0.0000 0.6651
vn -0.7467 -0.0000 -0.6651
vn -0.0000 -0.7652 -0.6439
vn -0.0000 0.7652 -0.6439
vn 0.7467 -0.0000 -0.6651
vn -0.0000 -0.7631 0.6463
vn 0.0027 -1.0000 -0.0000
vn 0.0007 -1.0000 -0.0000
vn -0.0001 -1.0000 -0.0000
vn 0.0003 -1.0000 -0.0000
vn -0.0027 -1.0000 -0.0000
vn -0.0007 -1.0000 -0.0000
vn 0.0001 -1.0000 -0.0000
vn -0.0003 -1.0000 -0.0000
vn -0.0002 -1.0000 -0.0000
vn 0.0002 -1.0000 -0.0000
vn 0.0970 -0.1406 -0.9853
vn -0.0970 -0.1406 0.9853
vt 0.775792 0.082555
vt 0.769760 0.006084
vt 0.775792 0.006084
vt 0.775792 0.443025
vt 0.769760 0.366554
vt 0.775792 0.366554
vt 0.818017 0.354385
vt 0.811985 0.277914
vt 0.818017 0.277914
vt 0.811985 0.354385
vt 0.805953 0.277914
vt 0.805953 0.354385
vt 0.799921 0.277914
vt 0.799921 0.354385
vt 0.793889 0.277914
vt 0.793889 0.354385
vt 0.787856 0.277914
vt 0.787856 0.354385
vt 0.781824 0.277914
vt 0.781824 0.354385
vt 0.775792 0.277914
vt 0.775792 0.354385
vt 0.769760 0.277914
vt 0.896436 0.082555
vt 0.890404 0.006084
vt 0.896436 0.006084
vt 0.890404 0.082555
vt 0.884371 0.006084
vt 0.884371 0.082555
vt 0.878339 0.006084
vt 0.878339 0.082555
vt 0.872307 0.006084
vt 0.872307 0.082555
vt 0.866275 0.006084
vt 0.866275 0.082555
vt 0.860243 0.006084
vt 0.860243 0.082555
vt 0.854210 0.006084
vt 0.854210 0.082555
vt 0.848178 0.006084
vt 0.848178 0.082555
vt 0.842146 0.006084
vt 0.842146 0.082555
vt 0.836114 0.006084
vt 0.836114 0.082555
vt 0.830082 0.006084
vt 0.830082 0.082555
vt 0.824050 0.006084
vt 0.824050 0.082555
vt 0.818017 0.006084
vt 0.818017 0.082555
vt 0.811985 0.006084
vt 0.811985 0.082555
vt 0.805953 0.006084
vt 0.805953 0.082555
vt 0.799921 0.006084
vt 0.799921 0.082555
vt 0.793889 0.006084
vt 0.793889 0.082555
vt 0.787856 0.006084
vt 0.787856 0.082555
vt 0.781824 0.006084
vt 0.781824 0.082555
vt 0.793548 0.191610
vt 0.843896 0.212465
vt 0.823041 0.262813
vt 0.781824 0.443025
vt 0.781824 0.366554
vt 0.787856 0.443025
vt 0.787856 0.366554
vt 0.811373 0.131992
vt 0.807028 0.134895
vt 0.809931 0.139240
vt 0.833371 0.169616
vt 0.825217 0.170779
vt 0.826301 0.173395
vt 0.837564 0.162528
vt 0.831797 0.167261
vt 0.844653 0.158334
vt 0.839567 0.164531
vt 0.848432 0.151265
vt 0.842298 0.156761
vt 0.850759 0.143593
vt 0.845815 0.150181
vt 0.851544 0.135616
vt 0.847981 0.143041
vt 0.850759 0.127638
vt 0.848712 0.135616
vt 0.848432 0.119967
vt 0.847981 0.128191
vt 0.844653 0.112897
vt 0.845815 0.121051
vt 0.837565 0.108703
vt 0.842298 0.114471
vt 0.833371 0.101615
vt 0.839567 0.106701
vt 0.826301 0.097836
vt 0.831797 0.103970
vt 0.818630 0.095509
vt 0.825217 0.100453
vt 0.810652 0.094724
vt 0.818077 0.098287
vt 0.802674 0.095509
vt 0.810652 0.097556
vt 0.795003 0.097836
vt 0.803227 0.098287
vt 0.787934 0.101615
vt 0.796087 0.100453
vt 0.783740 0.108703
vt 0.789507 0.103970
vt 0.776651 0.112897
vt 0.781737 0.106701
vt 0.772873 0.119967
vt 0.779006 0.114471
vt 0.770546 0.127638
vt 0.775489 0.121051
vt 0.769760 0.135616
vt 0.773323 0.128191
vt 0.770546 0.143593
vt 0.772592 0.135616
vt 0.772873 0.151265
vt 0.773323 0.143041
vt 0.776651 0.158334
vt 0.775489 0.150181
vt 0.783740 0.162528
vt 0.779006 0.156761
vt 0.787934 0.169616
vt 0.781737 0.164531
vt 0.795003 0.173395
vt 0.789507 0.167261
vt 0.802674 0.175722
vt 0.796087 0.170779
vt 0.818630 0.175722
vt 0.810652 0.173676
vt 0.810652 0.176508
vt 0.818077 0.172944
vt 0.810652 0.139310
vt 0.811373 0.139239
vt 0.812066 0.139029
vt 0.812705 0.138688
vt 0.813265 0.138228
vt 0.813724 0.137668
vt 0.814065 0.137030
vt 0.814276 0.136337
vt 0.814347 0.135616
vt 0.814276 0.134895
vt 0.814065 0.134202
vt 0.813724 0.133563
vt 0.813265 0.133003
vt 0.812705 0.132544
vt 0.812066 0.132202
vt 0.810652 0.131921
vt 0.809931 0.131992
vt 0.809238 0.132202
vt 0.808599 0.132544
vt 0.808040 0.133003
vt 0.807580 0.133563
vt 0.807239 0.134202
vt 0.806957 0.135616
vt 0.807028 0.136337
vt 0.807239 0.137030
vt 0.807580 0.137668
vt 0.808040 0.138228
vt 0.808599 0.138688
vt 0.809238 0.139029
vt 0.803227 0.172944
vt 0.470261 0.791567
vt 0.293415 0.968412
vt 0.293415 0.791567
vt 0.481586 0.740560
vt 0.732088 0.529739
vt 0.555242 0.706585
vt 0.555242 0.529739
vt 0.031587 0.706585
vt 0.031587 0.749076
vt 0.011747 0.717910
vt 0.470261 0.267912
vt 0.293415 0.444757
vt 0.293415 0.267912
vt 0.470261 0.968412
vt 0.282090 0.993916
vt 0.732088 0.706585
vt 0.757591 0.518414
vt 0.757592 0.717910
vt 0.481586 0.216905
vt 0.208433 0.529739
vt 0.259440 0.717910
vt 0.208433 0.706585
vt 0.446237 0.553763
vt 0.317439 0.682561
vt 0.317439 0.553763
vt 0.208433 0.487248
vt 0.228274 0.518414
vt 0.282090 0.495764
vt 0.470261 0.444757
vt 0.481586 0.495764
vt 0.446237 0.030108
vt 0.317439 0.158906
vt 0.317439 0.030108
vt 0.512752 0.968412
vt 0.481586 0.988253
vt 0.031587 0.529739
vt 0.011747 0.518414
vt 0.031587 0.487248
vt 0.512752 0.267912
vt 0.481586 0.248071
vt 0.512752 0.444757
vt 0.481586 0.464598
vt 0.228274 0.717910
vt 0.208433 0.749076
vt 0.512752 0.791567
vt 0.481586 0.771726
vt 0.504236 0.717910
vt 0.504236 0.518414
vt 0.293415 0.006084
vt 0.470261 0.006084
vt 0.470261 0.182930
vt 0.446237 0.158906
vt 0.282090 0.216905
vt 0.259440 0.518414
vt 0.446237 0.682561
vt 0.282090 0.740560
vt 0.006084 0.518414
vt 0.769760 0.082555
vt 0.769760 0.443025
vt 0.769760 0.354385
vt 0.815813 0.265006
vt 0.808295 0.265746
vt 0.800777 0.265006
vt 0.793548 0.262813
vt 0.786886 0.259252
vt 0.781047 0.254459
vt 0.776254 0.248620
vt 0.772693 0.241958
vt 0.770500 0.234729
vt 0.769760 0.227211
vt 0.770500 0.219693
vt 0.772693 0.212465
vt 0.776254 0.205802
vt 0.781047 0.199963
vt 0.786886 0.195171
vt 0.800777 0.189417
vt 0.808295 0.188676
vt 0.815813 0.189417
vt 0.823041 0.191610
vt 0.829704 0.195171
vt 0.835543 0.199963
vt 0.840335 0.205802
vt 0.846089 0.219693
vt 0.846830 0.227211
vt 0.846089 0.234729
vt 0.843896 0.241958
vt 0.840335 0.248620
vt 0.835543 0.254459
vt 0.829704 0.259252
vt 0.481586 0.993916
vt 0.293415 0.182930
vt 0.006084 0.717910
s 0
usemtl マテリアル
f 32/1/1 33/2/1 64/3/1
f 3/4/2 36/5/2 35/6/2
f 4/7/3 37/8/3 36/9/3
f 5/10/4 38/11/4 37/8/4
f 6/12/5 39/13/5 38/11/5
f 7/14/6 40/15/6 39/13/6
f 8/16/7 41/17/7 40/15/7
f 9/18/8 42/19/8 41/17/8
f 10/20/9 43/21/9 42/19/9
f 11/22/10 44/23/10 43/21/10
f 12/24/11 45/25/11 44/26/11
f 13/27/12 46/28/12 45/25/12
f 14/29/13 47/30/13 46/28/13
f 15/31/14 48/32/14 47/30/14
f 16/33/15 49/34/15 48/32/15
f 17/35/16 50/36/16 49/34/16
f 18/37/17 51/38/17 50/36/17
f 19/39/18 52/40/18 51/38/18
f 20/41/19 53/42/19 52/40/19
f 21/43/20 54/44/20 53/42/20
f 22/45/21 55/46/21 54/44/21
f 23/47/22 56/48/22 55/46/22
f 24/49/23 57/50/23 56/48/23
f 25/51/24 58/52/24 57/50/24
f 26/53/25 59/54/25 58/52/25
f 27/55/26 60/56/26 59/54/26
f 28/57/27 61/58/27 60/56/27
f 29/59/28 62/60/28 61/58/28
f 30/61/29 63/62/29 62/60/29
f 31/63/30 64/3/30 63/62/30
f 19/64/31 11/65/31 3/66/31
f 2/67/32 35/6/32 34/68/32
f 1/69/33 34/68/33 33/70/33
f 95/71/34 111/72/34 127/73/34
f 36/74/35 70/75/35 35/76/35
f 36/74/36 74/77/36 72/78/36
f 38/79/37 74/77/37 37/80/37
f 39/81/38 76/82/38 38/79/38
f 40/83/39 78/84/39 39/81/39
f 41/85/40 80/86/40 40/83/40
f 42/87/41 82/88/41 41/85/41
f 43/89/42 84/90/42 42/87/42
f 44/91/43 86/92/43 43/89/43
f 44/91/44 90/93/44 88/94/44
f 46/95/45 90/93/45 45/96/45
f 47/97/46 92/98/46 46/95/46
f 48/99/47 94/100/47 47/97/47
f 49/101/48 96/102/48 48/99/48
f 50/103/49 98/104/49 49/101/49
f 51/105/50 100/106/50 50/103/50
f 52/107/51 102/108/51 51/105/51
f 52/107/52 106/109/52 104/110/52
f 54/111/53 106/109/53 53/112/53
f 55/113/54 108/114/54 54/111/54
f 56/115/55 110/116/55 55/113/55
f 57/117/56 112/118/56 56/115/56
f 58/119/57 114/120/57 57/117/57
f 59/121/58 116/122/58 58/119/58
f 60/123/59 118/124/59 59/121/59
f 60/123/60 122/125/60 120/126/60
f 62/127/61 122/125/61 61/128/61
f 63/129/62 124/130/62 62/127/62
f 64/131/63 126/132/63 63/129/63
f 34/133/64 66/134/64 33/135/64
f 35/76/65 68/136/65 34/133/65
f 65/137/66 68/136/66 67/138/66
f 69/139/67 68/136/67 70/75/67
f 71/140/68 70/75/68 72/78/68
f 71/140/69 74/77/69 73/141/69
f 73/141/70 76/82/70 75/142/70
f 75/142/71 78/84/71 77/143/71
f 79/144/72 78/84/72 80/86/72
f 79/144/73 82/88/73 81/145/73
f 81/145/74 84/90/74 83/146/74
f 85/147/75 84/90/75 86/92/75
f 87/148/76 86/92/76 88/94/76
f 87/148/77 90/93/77 89/149/77
f 89/149/78 92/98/78 91/150/78
f 91/150/79 94/100/79 93/151/79
f 95/71/80 94/100/80 96/102/80
f 95/71/81 98/104/81 97/152/81
f 97/152/82 100/106/82 99/153/82
f 101/154/83 100/106/83 102/108/83
f 103/155/84 102/108/84 104/110/84
f 103/155/85 106/109/85 105/156/85
f 105/156/86 108/114/86 107/157/86
f 107/157/87 110/116/87 109/158/87
f 111/72/88 110/116/88 112/118/88
f 111/72/89 114/120/89 113/159/89
f 113/159/90 116/122/90 115/160/90
f 117/161/91 116/122/91 118/124/91
f 119/162/92 118/124/92 120/126/92
f 119/162/93 122/125/93 121/163/93
f 121/163/94 124/130/94 123/164/94
f 123/164/95 126/132/95 125/165/95
f 127/73/96 126/132/96 128/166/96
f 127/73/97 66/134/97 65/137/97
f 33/135/98 128/166/98 64/131/98
f 140/167/99 130/168/99 138/169/99
f 138/169/100 156/170/100 140/167/100
f 135/171/31 139/172/31 143/173/31
f 129/174/101 130/175/101 146/176/101
f 136/177/102 142/178/102 134/179/102
f 131/180/103 146/181/103 130/168/103
f 132/182/104 152/183/104 148/184/104
f 134/179/105 152/185/105 136/177/105
f 141/186/106 154/187/106 137/188/106
f 159/189/107 153/190/107 157/191/107
f 141/186/108 142/192/108 158/193/108
f 158/194/109 144/195/109 160/196/109
f 147/197/110 149/198/110 145/199/110
f 131/180/111 132/200/111 148/201/111
f 133/202/112 150/203/112 134/204/112
f 135/205/113 136/177/113 152/206/113
f 141/186/114 134/204/114 142/192/114
f 143/207/115 136/177/115 135/205/115
f 143/207/116 160/208/116 144/195/116
f 137/188/117 154/209/117 138/210/117
f 139/211/118 140/167/118 156/212/118
f 143/173/119 156/213/119 160/214/119
f 129/174/120 138/210/120 130/175/120
f 132/200/121 140/167/121 139/211/121
f 141/186/34 129/174/34 133/202/34
f 149/198/122 146/215/122 145/199/122
f 145/199/123 148/216/123 147/197/123
f 147/197/124 152/217/124 151/218/124
f 149/198/125 152/185/125 150/219/125
f 157/191/126 160/196/126 159/189/126
f 153/190/127 158/220/127 157/191/127
f 159/189/128 156/213/128 155/221/128
f 153/190/129 156/170/129 154/222/129
f 129/174/130 150/223/130 133/202/130
f 32/1/1 1/224/1 33/2/1
f 3/4/2 4/225/2 36/5/2
f 4/7/3 5/10/3 37/8/3
f 5/10/4 6/12/4 38/11/4
f 6/12/5 7/14/5 39/13/5
f 7/14/6 8/16/6 40/15/6
f 8/16/7 9/18/7 41/17/7
f 9/18/8 10/20/8 42/19/8
f 10/20/9 11/22/9 43/21/9
f 11/22/10 12/226/10 44/23/10
f 12/24/11 13/27/11 45/25/11
f 13/27/12 14/29/12 46/28/12
f 14/29/13 15/31/13 47/30/13
f 15/31/14 16/33/14 48/32/14
f 16/33/15 17/35/15 49/34/15
f 17/35/16 18/37/16 50/36/16
f 18/37/17 19/39/17 51/38/17
f 19/39/18 20/41/18 52/40/18
f 20/41/19 21/43/19 53/42/19
f 21/43/20 22/45/20 54/44/20
f 22/45/21 23/47/21 55/46/21
f 23/47/22 24/49/22 56/48/22
f 24/49/23 25/51/23 57/50/23
f 25/51/24 26/53/24 58/52/24
f 26/53/25 27/55/25 59/54/25
f 27/55/26 28/57/26 60/56/26
f 28/57/27 29/59/27 61/58/27
f 29/59/28 30/61/28 62/60/28
f 30/61/29 31/63/29 63/62/29
f 31/63/30 32/1/30 64/3/30
f 3/66/31 2/227/31 1/228/31
f 1/228/31 32/229/31 31/230/31
f 31/230/31 30/231/31 29/232/31
f 29/232/31 28/233/31 27/234/31
f 27/234/31 26/235/31 25/236/31
f 25/236/31 24/237/31 23/238/31
f 23/238/31 22/239/31 21/240/31
f 21/240/31 20/241/31 19/64/31
f 19/64/31 18/242/31 17/243/31
f 17/243/31 16/244/31 15/245/31
f 15/245/31 14/246/31 13/247/31
f 13/247/31 12/248/31 11/65/31
f 11/65/31 10/249/31 9/250/31
f 9/250/31 8/251/31 7/252/31
f 7/252/31 6/253/31 5/254/31
f 5/254/31 4/255/31 3/66/31
f 3/66/31 1/228/31 31/230/31
f 31/230/31 29/232/31 27/234/31
f 27/234/31 25/236/31 23/238/31
f 23/238/31 21/240/31 19/64/31
f 19/64/31 17/243/31 15/245/31
f 15/245/31 13/247/31 11/65/31
f 11/65/31 9/250/31 7/252/31
f 7/252/31 5/254/31 3/66/31
f 3/66/31 31/230/31 27/234/31
f 27/234/31 23/238/31 19/64/31
f 19/64/31 15/245/31 11/65/31
f 11/65/31 7/252/31 3/66/31
f 3/66/31 27/234/31 19/64/31
f 2/67/32 3/4/32 35/6/32
f 1/69/33 2/67/33 34/68/33
f 127/73/131 65/137/131 67/138/131
f 67/138/132 69/139/132 71/140/132
f 71/140/132 73/141/132 75/142/132
f 75/142/34 77/143/34 79/144/34
f 79/144/133 81/145/133 83/146/133
f 83/146/134 85/147/134 87/148/134
f 87/148/34 89/149/34 91/150/34
f 91/150/34 93/151/34 95/71/34
f 95/71/135 97/152/135 99/153/135
f 99/153/136 101/154/136 103/155/136
f 103/155/136 105/156/136 107/157/136
f 107/157/34 109/158/34 111/72/34
f 111/72/137 113/159/137 115/160/137
f 115/160/138 117/161/138 119/162/138
f 119/162/34 121/163/34 123/164/34
f 123/164/34 125/165/34 127/73/34
f 127/73/139 67/138/139 71/140/139
f 71/140/133 75/142/133 79/144/133
f 79/144/34 83/146/34 87/148/34
f 87/148/138 91/150/138 95/71/138
f 95/71/140 99/153/140 103/155/140
f 103/155/137 107/157/137 111/72/137
f 111/72/34 115/160/34 119/162/34
f 119/162/134 123/164/134 127/73/134
f 127/73/34 71/140/34 79/144/34
f 79/144/137 87/148/137 95/71/137
f 95/71/34 103/155/34 111/72/34
f 111/72/133 119/162/133 127/73/133
f 127/73/34 79/144/34 95/71/34
f 36/74/35 72/78/35 70/75/35
f 36/74/36 37/80/36 74/77/36
f 38/79/37 76/82/37 74/77/37
f 39/81/38 78/84/38 76/82/38
f 40/83/39 80/86/39 78/84/39
f 41/85/40 82/88/40 80/86/40
f 42/87/41 84/90/41 82/88/41
f 43/89/42 86/92/42 84/90/42
f 44/91/43 88/94/43 86/92/43
f 44/91/44 45/96/44 90/93/44
f 46/95/45 92/98/45 90/93/45
f 47/97/46 94/100/46 92/98/46
f 48/99/47 96/102/47 94/100/47
f 49/101/48 98/104/48 96/102/48
f 50/103/49 100/106/49 98/104/49
f 51/105/50 102/108/50 100/106/50
f 52/107/51 104/110/51 102/108/51
f 52/107/52 53/112/52 106/109/52
f 54/111/53 108/114/53 106/109/53
f 55/113/54 110/116/54 108/114/54
f 56/115/55 112/118/55 110/116/55
f 57/117/56 114/120/56 112/118/56
f 58/119/57 116/122/57 114/120/57
f 59/121/58 118/124/58 116/122/58
f 60/123/59 120/126/59 118/124/59
f 60/123/60 61/128/60 122/125/60
f 62/127/61 124/130/61 122/125/61
f 63/129/62 126/132/62 124/130/62
f 64/131/63 128/166/63 126/132/63
f 34/133/64 68/136/64 66/134/64
f 35/76/65 70/75/65 68/136/65
f 65/137/66 66/134/66 68/136/66
f 69/139/67 67/138/67 68/136/67
f 71/140/68 69/139/68 70/75/68
f 71/140/69 72/78/69 74/77/69
f 73/141/70 74/77/70 76/82/70
f 75/142/71 76/82/71 78/84/71
f 79/144/72 77/143/72 78/84/72
f 79/144/73 80/86/73 82/88/73
f 81/145/141 82/88/141 84/90/141
f 85/147/75 83/146/75 84/90/75
f 87/148/76 85/147/76 86/92/76
f 87/148/77 88/94/77 90/93/77
f 89/149/78 90/93/78 92/98/78
f 91/150/79 92/98/79 94/100/79
f 95/71/80 93/151/80 94/100/80
f 95/71/81 96/102/81 98/104/81
f 97/152/82 98/104/82 100/106/82
f 101/154/83 99/153/83 100/106/83
f 103/155/84 101/154/84 102/108/84
f 103/155/85 104/110/85 106/109/85
f 105/156/86 106/109/86 108/114/86
f 107/157/87 108/114/87 110/116/87
f 111/72/88 109/158/88 110/116/88
f 111/72/89 112/118/89 114/120/89
f 113/159/142 114/120/142 116/122/142
f 117/161/91 115/160/91 116/122/91
f 119/162/92 117/161/92 118/124/92
f 119/162/93 120/126/93 122/125/93
f 121/163/94 122/125/94 124/130/94
f 123/164/95 124/130/95 126/132/95
f 127/73/96 125/165/96 126/132/96
f 127/73/97 128/166/97 66/134/97
f 33/135/98 66/134/98 128/166/98
f 140/167/99 131/180/99 130/168/99
f 138/169/100 154/222/100 156/170/100
f 135/171/31 132/182/31 139/172/31
f 136/177/102 144/195/102 142/178/102
f 131/180/103 148/256/103 146/181/103
f 132/182/104 135/171/104 152/183/104
f 134/179/105 150/219/105 152/185/105
f 141/186/106 158/220/106 154/187/106
f 159/189/107 155/221/107 153/190/107
f 158/194/109 142/178/109 144/195/109
f 147/197/110 151/218/110 149/198/110
f 141/186/114 133/202/114 134/204/114
f 143/207/115 144/195/115 136/177/115
f 143/173/119 139/172/119 156/213/119
f 129/174/120 137/188/120 138/210/120
f 132/200/121 131/180/121 140/167/121
f 141/186/34 137/188/34 129/174/34
f 149/198/122 150/257/122 146/215/122
f 145/199/123 146/215/123 148/216/123
f 147/197/124 148/216/124 152/217/124
f 149/198/125 151/218/125 152/185/125
f 157/191/126 158/194/126 160/196/126
f 153/190/127 154/187/127 158/220/127
f 159/189/128 160/214/128 156/213/128
f 153/190/129 155/221/129 156/170/129
f 129/174/130 146/258/130 150/223/130
